<?xml version="1.0" ?><svg viewBox="0 0 512 512" xmlns="http://www.w3.org/2000/svg"><defs><style>.cls-1{fill:#0071af;}.cls-2{fill:#006095;}.cls-3{fill:#00659d;}.cls-4{fill:#cbe2ef;}.cls-5{fill:#c6dbe5;}.cls-6{fill:#338dbf;}.cls-7{fill:#7db6d6;}.cls-8{fill:#ea8383;}.cls-9{fill:#a8bac3;}.cls-10{fill:#005686;}</style></defs><g data-name="/ FILLED_OUTLINE" id="_FILLED_OUTLINE"><path class="cls-1" d="M458.27637,388.99512A79.99993,79.99993,0,0,0,412.7085,336.875L336,304l-8-40-72,24-72-24-8,40L99.2915,336.875a79.99993,79.99993,0,0,0-45.56787,52.12012L24,496H488Z"/><path class="cls-2" d="M296.00024,496H488l-26.35522-94.87866A191.90186,191.90186,0,0,1,296.00024,496Z"/><path class="cls-1" d="M327.69116,48.96631,307.59839,37.48486a103.9999,103.9999,0,0,0-103.19678,0L184.30884,48.96631A80,80,0,0,0,144,118.42578v68.61035a79.99988,79.99988,0,0,0,18.54224,51.2146L184,264l72,48,72-48,21.45776-25.74927A79.99988,79.99988,0,0,0,368,187.03613V118.42578A80,80,0,0,0,327.69116,48.96631Z"/><path class="cls-2" d="M244.40967,304.27319,256,312l72-48,21.45776-25.74927A79.99988,79.99988,0,0,0,368,187.03613V118.42578q0-2.77185-.19214-5.51318A224.00894,224.00894,0,0,1,244.40967,304.27319Z"/><rect class="cls-3" height="80" width="16" x="120" y="416"/><rect class="cls-4" height="200" width="48" x="232" y="296"/><rect class="cls-3" height="80" width="16" x="376" y="416"/><polygon class="cls-4" points="176 304 256 328 336 304 328 264 256 288 184 264 176 304"/><polygon class="cls-5" points="256 328 256 288 328 264 336 304 256 328"/><circle class="cls-4" cx="328" cy="392" r="16"/><path class="cls-6" d="M280,26.59741a104.0568,104.0568,0,0,0-48,0V72h48Z"/><path class="cls-7" d="M278.98783,70.89635l22.80487,6.84146A48,48,0,0,1,336,123.71347v62.6209a48,48,0,0,1-26.53375,42.9325l-17.68916,8.84459a80,80,0,0,1-71.55418,0l-17.68916-8.84459A48,48,0,0,1,176,186.33437v-62.6209a48,48,0,0,1,34.2073-45.97566l22.80487-6.84146A80,80,0,0,1,278.98783,70.89635Z"/><path class="cls-4" d="M307.72266,111.59131a179.99792,179.99792,0,0,0-103.44532,0L176,120.07446v55.17017l31.85938,5.30981a27.88932,27.88932,0,0,0,26.36279-10.0874h0a27.88911,27.88911,0,0,1,43.55566,0h0a27.88932,27.88932,0,0,0,26.36279,10.0874L336,175.24463V120.07446Z"/><rect class="cls-8" height="16" width="24" x="216" y="128"/><rect class="cls-8" height="16" width="24" x="272" y="128"/><path class="cls-9" d="M328,264l-43.61035,14.53662A224.45783,224.45783,0,0,1,256,298.02563V328l80-24Z"/><path class="cls-10" d="M376,478.58008V496h16V470.29272Q384.22094,474.79457,376,478.58008Z"/><path d="M465.98438,386.85352a87.58424,87.58424,0,0,0-50.124-57.332l-72.84082-31.21679-6.4248-32.12281,19.00879-22.80981A88.16225,88.16225,0,0,0,376,187.03613V118.42578a88.19361,88.19361,0,0,0-44.33887-76.40527L311.56738,30.53809a112.45666,112.45666,0,0,0-111.13574,0l-20.0918,11.48242A88.19249,88.19249,0,0,0,136,118.42578v68.61035a88.16225,88.16225,0,0,0,20.39648,56.33594l19.00879,22.80981-6.4248,32.12281L96.13965,329.52148a87.58424,87.58424,0,0,0-50.124,57.332L16.292,493.8584l15.416,4.2832L61.43164,391.13672a71.65644,71.65644,0,0,1,41.01074-46.9082l74.03931-31.73121L224,326.75269V496h16V331.55249l16,4.8,16-4.8V496h16V326.75269l47.51831-14.25538,74.03931,31.73121a71.65644,71.65644,0,0,1,41.01074,46.9082L480.292,498.1416l15.416-4.2832Zm-275.917-112.39844L248,293.76587v23.48169L185.27271,298.4292ZM264,293.76587l57.93262-19.31079,4.79467,23.97412L264,317.24756Zm-57.42383-174.512a171.5349,171.5349,0,0,1,98.84766-.001L328,126.02686v42.44067l-25.1748,4.19556a19.90582,19.90582,0,0,1-18.79981-7.19434,35.89077,35.89077,0,0,0-56.05078.001,19.9024,19.9024,0,0,1-18.79981,7.19336L184,168.46753V126.02686ZM184,184.68921l22.54395,3.75708a35.92114,35.92114,0,0,0,33.9248-12.98145,19.89029,19.89029,0,0,1,31.0625-.001,35.89933,35.89933,0,0,0,33.9248,12.98242L328,184.68921V186.334a39.78115,39.78115,0,0,1-22.1123,35.77735l-17.6875,8.84472a72.346,72.346,0,0,1-64.39942,0l-17.68848-8.84472A39.78115,39.78115,0,0,1,184,186.334Zm126.02148-80.76148a187.47422,187.47422,0,0,0-108.043.001l-14.98267,4.49439a39.75117,39.75117,0,0,1,25.51-23.02271l22.80469-6.8418a71.81221,71.81221,0,0,1,41.3789,0l22.80469,6.84278a39.74917,39.74917,0,0,1,25.50977,23.02124ZM272,33.179V60.98682a87.59167,87.59167,0,0,0-32,.00048V33.179A96.87345,96.87345,0,0,1,272,33.179ZM152,187.03613V118.42578a72.15348,72.15348,0,0,1,36.27832-62.51269l20.0918-11.48243A95.07912,95.07912,0,0,1,224,37.30322V65.24805L207.9082,70.0752A55.65548,55.65548,0,0,0,168,123.71387V186.334a55.696,55.696,0,0,0,30.95605,50.0879l17.68946,8.84472a88.41994,88.41994,0,0,0,78.71,0l17.68848-8.84472A55.696,55.696,0,0,0,344,186.334V123.71387a55.65345,55.65345,0,0,0-39.9082-53.6377L288,65.24829V37.30322a95.10581,95.10581,0,0,1,15.62891,7.12647l20.09375,11.4834A72.15461,72.15461,0,0,1,360,118.42578v68.61035a72.141,72.141,0,0,1-16.6875,46.09375L323.312,257.13013,256,279.56738l-67.312-22.43725L168.6875,233.12988A72.141,72.141,0,0,1,152,187.03613Z"/><rect height="80" width="16" x="120" y="416"/><rect height="16" width="24" x="216" y="128"/><rect height="80" width="16" x="376" y="416"/><rect height="16" width="24" x="272" y="128"/><path d="M328,368a24,24,0,1,0,24,24A24.0275,24.0275,0,0,0,328,368Zm0,32a8,8,0,1,1,8-8A8.00917,8.00917,0,0,1,328,400Z"/></g></svg>