<?xml version="1.0"?><svg width="640" height="480" xmlns="http://www.w3.org/2000/svg">
 <title>Happy Face</title>
 <metadata id="metadata2483">image/svg+xmlJohn GustafssonAge warning symbolBased on the specification in the European standard EN 71-6: Graphical symbols for age warning labelling2009-04-14</metadata>
 <g>
  <title>Layer 1</title>
  <g id="svg_6">
   <path id="path2478" d="m473.701996,85.648003c-53.29599,-53.296005 -124.156006,-82.648003 -199.524994,-82.648003c-75.372009,0 -146.233002,29.351997 -199.528999,82.647003c-53.296003,53.296997 -82.648003,124.15799 -82.648003,199.529999c0,75.372009 29.351999,146.233002 82.648003,199.529022c53.295998,53.29599 124.15699,82.647003 199.528999,82.647003c75.369019,0 146.229004,-29.35199 199.524017,-82.647003c53.29599,-53.297028 82.646027,-124.157013 82.646027,-199.529022c0.000977,-75.372009 -29.34906,-146.233002 -82.64505,-199.528999zm-436.347996,199.528999c0,-58.044006 21.003002,-111.268005 55.792004,-152.5l328.525993,337.639008c-40.493011,32.328003 -91.772003,51.68399 -147.494995,51.68399c-130.584,0 -236.823002,-106.238007 -236.823002,-236.822998zm416.915989,153.604004l-328.716995,-337.835007c40.666992,-32.872002 92.382004,-52.591 148.624985,-52.591c130.581024,0 236.817017,106.238003 236.817017,236.823009c0,58.561981 -21.377991,112.218994 -56.725006,153.602997z" fill="#00bf5f"/>
   <circle id="svg_4" r="238.183594" cy="284.749997" cx="275.249995" stroke-linecap="null" stroke-linejoin="null" stroke-dasharray="null" stroke-width="null" fill="#ffffff"/>
  </g>
 </g>
</svg>